<svg xmlns="http://www.w3.org/2000/svg" width="660" height="400" viewBox="0 0 660 400" role="img" aria-label="Booster catch rate by controller generation: PID 0% across all wind scenarios, MPC 53/50/50%, neural policy 87/87/90% (calm/standard/stormy)."><rect x="0.5" y="0.5" width="659" height="399" rx="12" fill="#fcfcfb" stroke="rgba(11,11,11,0.10)"/><text x="52" y="30" font-family="system-ui, -apple-system, 'Segoe UI', sans-serif" font-size="17" font-weight="600" fill="#0b0b0b">Booster catch rate by controller generation</text><text x="52" y="49" font-family="system-ui, -apple-system, 'Segoe UI', sans-serif" font-size="12.5" fill="#52514e">30-seed Monte-Carlo per cell · standard catch envelope · TS physics core</text><line x1="52" y1="322.0" x2="638" y2="322.0" stroke="#c3c2b7" stroke-width="1"/><text x="44" y="326.0" text-anchor="end" font-family="system-ui, -apple-system, 'Segoe UI', sans-serif" font-size="11.5" fill="#898781" font-variant-numeric="tabular-nums">0%</text><line x1="52" y1="259.0" x2="638" y2="259.0" stroke="#e1e0d9" stroke-width="1"/><text x="44" y="263.0" text-anchor="end" font-family="system-ui, -apple-system, 'Segoe UI', sans-serif" font-size="11.5" fill="#898781" font-variant-numeric="tabular-nums">25%</text><line x1="52" y1="196.0" x2="638" y2="196.0" stroke="#e1e0d9" stroke-width="1"/><text x="44" y="200.0" text-anchor="end" font-family="system-ui, -apple-system, 'Segoe UI', sans-serif" font-size="11.5" fill="#898781" font-variant-numeric="tabular-nums">50%</text><line x1="52" y1="133.0" x2="638" y2="133.0" stroke="#e1e0d9" stroke-width="1"/><text x="44" y="137.0" text-anchor="end" font-family="system-ui, -apple-system, 'Segoe UI', sans-serif" font-size="11.5" fill="#898781" font-variant-numeric="tabular-nums">75%</text><line x1="52" y1="70.0" x2="638" y2="70.0" stroke="#e1e0d9" stroke-width="1"/><text x="44" y="74.0" text-anchor="end" font-family="system-ui, -apple-system, 'Segoe UI', sans-serif" font-size="11.5" fill="#898781" font-variant-numeric="tabular-nums">100%</text><text x="104.4" y="316.0" text-anchor="middle" font-family="system-ui, -apple-system, 'Segoe UI', sans-serif" font-size="11.5" font-weight="600" fill="#52514e" font-variant-numeric="tabular-nums">0%</text><text x="149.7" y="316.0" text-anchor="middle" font-family="system-ui, -apple-system, 'Segoe UI', sans-serif" font-size="11.5" font-weight="600" fill="#52514e" font-variant-numeric="tabular-nums">0%</text><text x="194.9" y="316.0" text-anchor="middle" font-family="system-ui, -apple-system, 'Segoe UI', sans-serif" font-size="11.5" font-weight="600" fill="#52514e" font-variant-numeric="tabular-nums">0%</text><text x="149.7" y="344" text-anchor="middle" font-family="system-ui, -apple-system, 'Segoe UI', sans-serif" font-size="13" font-weight="600" fill="#0b0b0b">PID</text><text x="149.7" y="360" text-anchor="middle" font-family="system-ui, -apple-system, 'Segoe UI', sans-serif" font-size="11" fill="#898781">M4</text><path d="M278.6,322 V191.6 Q278.6,187.6 282.6,187.6 H316.9 Q320.9,187.6 320.9,191.6 V322 Z" fill="#86b6ef"/><text x="299.7" y="181.6" text-anchor="middle" font-family="system-ui, -apple-system, 'Segoe UI', sans-serif" font-size="11.5" font-weight="600" fill="#52514e" font-variant-numeric="tabular-nums">53%</text><path d="M323.9,322 V200.0 Q323.9,196.0 327.9,196.0 H362.1 Q366.1,196.0 366.1,200.0 V322 Z" fill="#2a78d6"/><text x="345.0" y="190.0" text-anchor="middle" font-family="system-ui, -apple-system, 'Segoe UI', sans-serif" font-size="11.5" font-weight="600" fill="#52514e" font-variant-numeric="tabular-nums">50%</text><path d="M369.1,322 V200.0 Q369.1,196.0 373.1,196.0 H407.4 Q411.4,196.0 411.4,200.0 V322 Z" fill="#104281"/><text x="390.3" y="190.0" text-anchor="middle" font-family="system-ui, -apple-system, 'Segoe UI', sans-serif" font-size="11.5" font-weight="600" fill="#52514e" font-variant-numeric="tabular-nums">50%</text><text x="345.0" y="344" text-anchor="middle" font-family="system-ui, -apple-system, 'Segoe UI', sans-serif" font-size="13" font-weight="600" fill="#0b0b0b">MPC</text><text x="345.0" y="360" text-anchor="middle" font-family="system-ui, -apple-system, 'Segoe UI', sans-serif" font-size="11" fill="#898781">M5</text><path d="M473.9,322 V107.6 Q473.9,103.6 477.9,103.6 H512.2 Q516.2,103.6 516.2,107.6 V322 Z" fill="#86b6ef"/><text x="495.1" y="97.6" text-anchor="middle" font-family="system-ui, -apple-system, 'Segoe UI', sans-serif" font-size="11.5" font-weight="600" fill="#52514e" font-variant-numeric="tabular-nums">87%</text><path d="M519.2,322 V107.6 Q519.2,103.6 523.2,103.6 H557.5 Q561.5,103.6 561.5,107.6 V322 Z" fill="#2a78d6"/><text x="540.3" y="97.6" text-anchor="middle" font-family="system-ui, -apple-system, 'Segoe UI', sans-serif" font-size="11.5" font-weight="600" fill="#52514e" font-variant-numeric="tabular-nums">87%</text><path d="M564.5,322 V99.2 Q564.5,95.2 568.5,95.2 H602.7 Q606.7,95.2 606.7,99.2 V322 Z" fill="#104281"/><text x="585.6" y="89.2" text-anchor="middle" font-family="system-ui, -apple-system, 'Segoe UI', sans-serif" font-size="11.5" font-weight="600" fill="#52514e" font-variant-numeric="tabular-nums">90%</text><text x="540.3" y="344" text-anchor="middle" font-family="system-ui, -apple-system, 'Segoe UI', sans-serif" font-size="13" font-weight="600" fill="#0b0b0b">Neural policy</text><text x="540.3" y="360" text-anchor="middle" font-family="system-ui, -apple-system, 'Segoe UI', sans-serif" font-size="11" fill="#898781">M6</text><rect x="52" y="375" width="11" height="11" rx="2.5" fill="#86b6ef"/><text x="68" y="384" font-family="system-ui, -apple-system, 'Segoe UI', sans-serif" font-size="12" fill="#52514e">calm wind</text><rect x="131.2" y="375" width="11" height="11" rx="2.5" fill="#2a78d6"/><text x="147.2" y="384" font-family="system-ui, -apple-system, 'Segoe UI', sans-serif" font-size="12" fill="#52514e">standard wind</text><rect x="239.6" y="375" width="11" height="11" rx="2.5" fill="#104281"/><text x="255.6" y="384" font-family="system-ui, -apple-system, 'Segoe UI', sans-serif" font-size="12" fill="#52514e">stormy wind</text></svg>
