<svg xmlns="http://www.w3.org/2000/svg" width="720" height="360" viewBox="0 0 720 360">
  <rect width="720" height="360" fill="#0c1117" />
  <text x="360" y="20" fill="#eee" font-size="14" text-anchor="middle" font-family="sans-serif">PID vs MPC — success rate vs wind (booster-descent-calm)</text>
  <text x="295" y="350" fill="#aaa" font-size="11" text-anchor="middle">wind scale (× scenario default)</text>
  <text x="14" y="172" fill="#aaa" font-size="11" text-anchor="middle" transform="rotate(-90 14 172)">success rate</text>
  <rect x="70" y="32" width="450" height="280" fill="none" stroke="#ffffff40" />
  <line x1="70" y1="32" x2="70" y2="312" stroke="#ffffff20" />
  <text x="70" y="326" fill="#aaa" font-size="10" text-anchor="middle">0.0</text>
  <line x1="70" y1="312" x2="520" y2="312" stroke="#ffffff20" />
  <text x="64" y="315" fill="#aaa" font-size="10" text-anchor="end">0 %</text>
  <line x1="160" y1="32" x2="160" y2="312" stroke="#ffffff20" />
  <text x="160" y="326" fill="#aaa" font-size="10" text-anchor="middle">0.4</text>
  <line x1="70" y1="256" x2="520" y2="256" stroke="#ffffff20" />
  <text x="64" y="259" fill="#aaa" font-size="10" text-anchor="end">20 %</text>
  <line x1="250" y1="32" x2="250" y2="312" stroke="#ffffff20" />
  <text x="250" y="326" fill="#aaa" font-size="10" text-anchor="middle">0.8</text>
  <line x1="70" y1="200" x2="520" y2="200" stroke="#ffffff20" />
  <text x="64" y="203" fill="#aaa" font-size="10" text-anchor="end">40 %</text>
  <line x1="340" y1="32" x2="340" y2="312" stroke="#ffffff20" />
  <text x="340" y="326" fill="#aaa" font-size="10" text-anchor="middle">1.2</text>
  <line x1="70" y1="144" x2="520" y2="144" stroke="#ffffff20" />
  <text x="64" y="147" fill="#aaa" font-size="10" text-anchor="end">60 %</text>
  <line x1="430" y1="32" x2="430" y2="312" stroke="#ffffff20" />
  <text x="430" y="326" fill="#aaa" font-size="10" text-anchor="middle">1.6</text>
  <line x1="70" y1="88" x2="520" y2="88" stroke="#ffffff20" />
  <text x="64" y="91" fill="#aaa" font-size="10" text-anchor="end">80 %</text>
  <line x1="520" y1="32" x2="520" y2="312" stroke="#ffffff20" />
  <text x="520" y="326" fill="#aaa" font-size="10" text-anchor="middle">2.0</text>
  <line x1="70" y1="32" x2="520" y2="32" stroke="#ffffff20" />
  <text x="64" y="35" fill="#aaa" font-size="10" text-anchor="end">100 %</text>
  <path d="M 70.0 312.0 L 295.0 312.0 L 520.0 312.0" fill="none" stroke="#7dd3fc" stroke-width="2" />
  <circle cx="70.0" cy="312.0" r="3" fill="#7dd3fc" />
  <circle cx="295.0" cy="312.0" r="3" fill="#7dd3fc" />
  <circle cx="520.0" cy="312.0" r="3" fill="#7dd3fc" />
  <path d="M 70.0 162.7 L 295.0 172.0 L 520.0 172.0" fill="none" stroke="#fbbf24" stroke-width="2" />
  <circle cx="70.0" cy="162.7" r="3" fill="#fbbf24" />
  <circle cx="295.0" cy="172.0" r="3" fill="#fbbf24" />
  <circle cx="520.0" cy="172.0" r="3" fill="#fbbf24" />
  <rect x="532" y="40" width="10" height="10" fill="#7dd3fc" />
  <text x="548" y="49" fill="#ddd" font-size="11">Cascaded PID (default gains)</text>
  <rect x="532" y="56" width="10" height="10" fill="#fbbf24" />
  <text x="548" y="65" fill="#ddd" font-size="11">MPC (linear SOCP, PID fallback)</text>
</svg>